<svg xmlns="http://www.w3.org/2000/svg" xmlns:xlink="http://www.w3.org/1999/xlink" width="1080" zoomAndPan="magnify" viewBox="0 0 810 809.999993" height="1080" preserveAspectRatio="xMidYMid meet" version="1.0"><path fill="#ffffff" d="M 184.3125 791.363281 L 184.3125 269.980469 L 11.035156 269.980469 L 11.035156 791.359375 L 184.3125 791.359375 Z M 97.691406 198.820312 C 158.097656 198.820312 195.726562 158.75 195.726562 108.71875 C 194.585938 57.574219 158.097656 18.636719 98.824219 18.636719 C 39.542969 18.636719 0.792969 57.578125 0.792969 108.71875 C 0.792969 158.753906 38.398438 198.820312 96.550781 198.820312 Z M 280.214844 791.363281 C 280.214844 791.363281 282.488281 318.898438 280.214844 269.980469 L 453.519531 269.980469 L 453.519531 345.59375 L 452.371094 345.59375 C 475.160156 310.011719 516.210938 257.738281 609.6875 257.738281 C 723.730469 257.738281 809.207031 332.257812 809.207031 492.40625 L 809.207031 791.363281 L 635.929688 791.363281 L 635.929688 512.4375 C 635.929688 442.351562 610.859375 394.527344 548.132812 394.527344 C 500.269531 394.527344 471.746094 426.769531 459.21875 457.9375 C 454.636719 469.03125 453.519531 484.609375 453.519531 500.195312 L 453.519531 791.363281 Z M 280.214844 791.363281 " fill-opacity="1" fill-rule="evenodd"/></svg>