<?xml version="1.0" encoding="UTF-8"?>
<svg id="Laag_1" xmlns="http://www.w3.org/2000/svg" xmlns:xlink="http://www.w3.org/1999/xlink" version="1.1" viewBox="0 0 149 148.99">
  <!-- Generator: Adobe Illustrator 30.1.0, SVG Export Plug-In . SVG Version: 2.1.1 Build 136)  -->
  <defs>
    <style>
      .st0 {
        fill: none;
      }

      .st1 {
        clip-path: url(#clippath);
      }
    </style>
    <clipPath id="clippath">
      <rect class="st0" y="56.49" width="149" height="35.97"/>
    </clipPath>
  </defs>
  <g class="st1">
    <g>
      <path d="M35.76,74.44h-8.93c4.92,0,8.93,4.03,8.93,8.97,0,2.48-.99,4.74-2.61,6.35-1.66,1.7-3.94,2.65-6.32,2.65H0v-17.96h8.93c-4.95,0-8.93-4-8.93-8.97,0-2.38.93-4.66,2.61-6.34,1.67-1.68,3.95-2.63,6.32-2.62h26.83v17.93h0ZM57.84,89.32c-2.65-2.09-4.02-5.14-4.12-9.14h5.88c.1,2.64.96,4.52,2.58,5.63,1.62,1.11,3.73,1.67,6.33,1.67,2.25,0,4.05-.45,5.42-1.35,1.36-.9,2.05-2.21,2.05-3.91,0-.93-.24-1.72-.72-2.34-.48-.63-1.36-1.2-2.65-1.72-1.28-.51-3.16-1.01-5.63-1.5-4.27-.84-7.39-2.06-9.34-3.65-1.96-1.6-2.94-3.92-2.94-6.98,0-1.87.53-3.53,1.59-4.98,1.06-1.45,2.53-2.57,4.43-3.36,1.9-.79,4.08-1.18,6.55-1.18,4.56,0,8,1.05,10.33,3.14,2.33,2.1,3.54,4.91,3.64,8.46h-5.78c-.13-2.25-.85-3.92-2.17-5s-3.32-1.62-6.02-1.62c-1.96,0-3.53.39-4.72,1.18-1.19.79-1.78,1.86-1.78,3.21,0,1,.2,1.81.6,2.44.4.63,1.2,1.2,2.41,1.72,1.2.51,3.01,1.02,5.42,1.5,3.34.65,5.94,1.43,7.8,2.37,1.86.94,3.17,2.05,3.93,3.34.75,1.29,1.13,2.87,1.13,4.74,0,2.16-.58,4.03-1.73,5.61-1.16,1.58-2.76,2.79-4.82,3.62-2.05.84-4.43,1.26-7.13,1.26-4.36,0-7.87-1.05-10.52-3.14h0ZM84.45,57.08h5.54v5.46h-5.54v-5.46ZM84.45,66.75h5.54v25.13h-5.54v-25.13h0ZM106.82,90.77c-1.89-1.13-3.34-2.69-4.33-4.69-.99-2-1.49-4.25-1.49-6.77s.5-4.77,1.49-6.77c1-2,2.44-3.56,4.33-4.69,1.89-1.13,4.14-1.69,6.74-1.69s4.8.56,6.69,1.69c1.89,1.13,3.34,2.69,4.33,4.69,1,2,1.49,4.25,1.49,6.77s-.5,4.77-1.49,6.77c-1,2-2.44,3.56-4.33,4.69-1.89,1.13-4.12,1.69-6.69,1.69s-4.85-.56-6.74-1.69ZM108.41,85.45c1.16,1.51,2.87,2.27,5.15,2.27s3.95-.76,5.11-2.27c1.16-1.51,1.73-3.56,1.73-6.14s-.58-4.62-1.73-6.14c-1.16-1.52-2.86-2.27-5.11-2.27s-4,.76-5.15,2.27c-1.16,1.51-1.73,3.56-1.73,6.14s.58,4.62,1.73,6.14ZM130.14,90.31c-1.98-1.43-3.06-3.67-3.25-6.69h5.44c.19,1.71.78,2.92,1.76,3.62.98.71,2.38,1.06,4.21,1.06,1.57,0,2.82-.28,3.76-.85.93-.56,1.4-1.35,1.4-2.34,0-.68-.15-1.23-.43-1.64s-.86-.78-1.71-1.09c-.85-.31-2.14-.6-3.88-.9-3.73-.61-6.31-1.55-7.75-2.8-1.44-1.26-2.17-2.95-2.17-5.08,0-2.29.92-4.1,2.77-5.44,1.85-1.34,4.28-2.01,7.3-2.01,3.44,0,6.08.75,7.95,2.25,1.86,1.5,2.82,3.58,2.89,6.26h-5.25c-.07-1.61-.6-2.74-1.59-3.38-.99-.64-2.33-.97-4-.97-1.35,0-2.45.27-3.3.82-.85.55-1.28,1.31-1.28,2.27,0,.68.17,1.22.51,1.62.34.4.95.75,1.83,1.04.88.29,2.17.58,3.88.87,2.5.42,4.46.97,5.88,1.64,1.41.68,2.42,1.52,3.01,2.51.6,1,.89,2.22.89,3.67,0,2.42-.99,4.3-2.99,5.65-1.99,1.35-4.61,2.03-7.85,2.03s-6.04-.72-8.02-2.15h0ZM98.85,57.08h-5.66v34.8h5.66v-34.8h0ZM143.59,58.57h2.01c.53,0,.93.12,1.2.36.27.24.4.57.4.98,0,.23-.06.44-.18.63-.13.2-.32.36-.53.48.16.06.3.17.4.32.09.14.15.3.18.5l.2,1.33h-.81l-.15-1.13c-.04-.26-.12-.44-.25-.55-.13-.11-.31-.17-.55-.17h-1.15v1.86h-.78v-4.59h0,0ZM145.52,60.66c.3,0,.52-.06.66-.18.15-.12.22-.3.22-.53s-.07-.41-.22-.53c-.15-.12-.37-.19-.66-.19h-1.14v1.43h1.14s0,0,0,0Z"/>
      <path d="M145.23,64.64c-2.08,0-3.77-1.7-3.77-3.78,0-2.08,1.68-3.78,3.77-3.78,2.08,0,3.77,1.7,3.77,3.78,0,2.08-1.68,3.78-3.77,3.78h0ZM145.23,57.78c-1.7,0-3.07,1.38-3.07,3.08,0,1.7,1.37,3.07,3.07,3.08,1.69,0,3.07-1.38,3.07-3.08,0-1.69-1.37-3.07-3.07-3.08h0Z"/>
    </g>
  </g>
</svg>